<svg width="23" height="23" viewBox="0 0 23 23" fill="none" xmlns="http://www.w3.org/2000/svg">
<path d="M8.45927 4.67637C9.72627 2.32401 10.3593 1.14783 11.3063 1.14783C12.2533 1.14783 12.8863 2.32401 14.1533 4.67637L14.4813 5.28516C14.8413 5.95401 15.0213 6.28844 15.3013 6.50897C15.5813 6.72951 15.9313 6.8113 16.6313 6.97489L17.2673 7.12398C19.7273 7.70068 20.9563 7.98852 21.2493 8.9628C21.5413 9.93605 20.7033 10.9517 19.0263 12.9821L18.5923 13.507C18.1163 14.0837 17.8773 14.3726 17.7703 14.7288C17.6633 15.086 17.6993 15.4711 17.7713 16.2404L17.8373 16.9414C18.0903 19.6509 18.2173 21.0052 17.4513 21.6067C16.6853 22.2093 15.5333 21.6595 13.2313 20.562L12.6343 20.2784C11.9803 19.9657 11.6533 19.8104 11.3063 19.8104C10.9593 19.8104 10.6323 19.9657 9.97826 20.2784L9.38227 20.562C7.07927 21.6595 5.92727 22.2083 5.16227 21.6078C4.39527 21.0052 4.52227 19.6509 4.77527 16.9414L4.84127 16.2414C4.91327 15.4711 4.94927 15.086 4.84127 14.7298C4.73527 14.3726 4.49627 14.0837 4.02027 13.5081L3.58627 12.9821C1.90927 10.9528 1.07127 9.93708 1.36327 8.9628C1.65627 7.98852 2.88627 7.69965 5.34627 7.12398L5.98227 6.97489C6.68127 6.8113 7.03027 6.72951 7.31127 6.50897C7.59127 6.28844 7.77127 5.95401 8.13127 5.28516L8.45927 4.67637Z" stroke="#226BAC" stroke-width="1.5"/>
</svg>
