<svg width="25" height="26" viewBox="0 0 25 26" fill="none" xmlns="http://www.w3.org/2000/svg">
<path d="M18.6637 17.8906C17.2888 18.1938 15.8628 18.1391 14.5134 17.7316C13.1639 17.3241 11.9331 16.5764 10.9312 15.5556C9.92933 14.5347 9.18761 13.2725 8.77247 11.8821C8.35734 10.4916 8.28175 9.01619 8.55247 7.58803C8.51585 7.6228 8.4773 7.65531 8.437 7.68541C8.15159 7.89837 7.79967 7.97077 7.09582 8.11558L6.45731 8.24763C3.98373 8.75831 2.74696 9.01314 2.42974 9.97925C2.11354 10.9444 2.92591 11.9821 4.55167 14.0567L4.97242 14.5931C5.43386 15.1823 5.66557 15.4775 5.76365 15.8364C5.86169 16.1963 5.81609 16.5804 5.72491 17.3475L5.64144 18.0464C5.32089 20.7483 5.16013 22.0987 5.91086 22.7206C6.66156 23.3435 7.82687 22.8257 10.1555 21.7892L10.7594 21.5216C11.421 21.2265 11.7518 21.08 12.0986 21.0893C12.4455 21.0985 12.7685 21.2625 13.4155 21.5927L14.0032 21.8922C16.2781 23.0509 17.416 23.6303 18.1957 23.0505C18.9775 22.4686 18.8844 21.1114 18.6991 18.396L18.6637 17.8906Z" fill="#FF4367"/>
<path opacity="0.5" d="M9.6304 5.88406L9.28731 6.48388C8.91074 7.14287 8.72245 7.47237 8.43704 7.68534C8.4778 7.65536 8.51561 7.62323 8.55251 7.58796C8.28172 9.01623 8.3573 10.4917 8.77248 11.8823C9.18766 13.2729 9.92949 14.5352 10.9315 15.5561C11.9335 16.577 13.1645 17.3246 14.5141 17.732C15.8637 18.1394 17.2898 18.1939 18.6647 17.8906L18.6496 17.6934C18.5979 16.9225 18.5715 16.5365 18.6874 16.1823C18.8032 15.8291 19.0483 15.5467 19.5396 14.9829L19.9865 14.4698C21.7136 12.486 22.5767 11.4931 22.3081 10.5113C22.0405 9.52951 20.8182 9.20782 18.3734 8.56652L17.7413 8.40046C17.0466 8.21822 16.6988 8.12709 16.4234 7.89911C16.149 7.67116 15.9774 7.33203 15.6342 6.65377L15.3225 6.03643C14.1146 3.65095 13.5112 2.45822 12.5645 2.43288C11.6178 2.40754 10.9557 3.56639 9.6304 5.88406Z" fill="#FF4367"/>
</svg>
